<svg width="140" height="140" viewBox="0 0 140 140" xmlns="http://www.w3.org/2000/svg" xmlns:xlink="http://www.w3.org/1999/xlink"><title>project-manager-icon</title><defs><path id="a" d="M34 34h73v73H34z"/><mask id="g" x="0" y="0" width="73" height="73" fill="#fff"><use xlink:href="#a"/></mask><rect id="b" x="30" y="48" width="29" height="4" rx="2"/><mask id="h" x="-2" y="-2" width="33" height="8"><path fill="#fff" d="M28 46h33v8H28z"/><use xlink:href="#b"/></mask><rect id="c" x="42" y="58" width="37" height="4" rx="2"/><mask id="i" x="-2" y="-2" width="41" height="8"><path fill="#fff" d="M40 56h41v8H40z"/><use xlink:href="#c"/></mask><rect id="d" x="80" y="88" width="29" height="4" rx="2"/><mask id="j" x="-2" y="-2" width="33" height="8"><path fill="#fff" d="M78 86h33v8H78z"/><use xlink:href="#d"/></mask><rect id="e" x="48" y="68" width="44" height="4" rx="2"/><mask id="k" x="-2" y="-2" width="48" height="8"><path fill="#fff" d="M46 66h48v8H46z"/><use xlink:href="#e"/></mask><rect id="f" x="70" y="78" width="22" height="4" rx="2"/><mask id="l" x="-2" y="-2" width="26" height="8"><path fill="#fff" d="M68 76h26v8H68z"/><use xlink:href="#f"/></mask></defs><g fill="none" fill-rule="evenodd"><circle fill="#EFE8D8" cx="70" cy="70" r="70"/><use stroke="#FF4552" mask="url(#g)" stroke-width="4" xlink:href="#a"/><path d="M55 40v62.032M76 40v62.032M97 40v62.032M44 40v62.032M65 40v62.032M86 40v62.032" stroke="#FF4552" stroke-width="2"/><use fill="#FF4552" xlink:href="#b"/><use stroke="#EFE8D8" mask="url(#h)" stroke-width="4" xlink:href="#b"/><use fill="#FF4552" xlink:href="#c"/><use stroke="#EFE8D8" mask="url(#i)" stroke-width="4" xlink:href="#c"/><use fill="#FF4552" xlink:href="#d"/><use stroke="#EFE8D8" mask="url(#j)" stroke-width="4" xlink:href="#d"/><g><use fill="#FF4552" xlink:href="#e"/><use stroke="#EFE8D8" mask="url(#k)" stroke-width="4" xlink:href="#e"/></g><g><use fill="#FF4552" xlink:href="#f"/><use stroke="#EFE8D8" mask="url(#l)" stroke-width="4" xlink:href="#f"/></g><g stroke-linecap="round"><path stroke="#EFE8D8" stroke-width="8" d="M87.566 48.096l6.225 6.225 11.776-11.774"/><path stroke="#FF4552" stroke-width="4" d="M87.566 48.096l6.225 6.225 11.776-11.774"/></g></g></svg>