<svg width="140" height="140" viewBox="0 0 140 140" xmlns="http://www.w3.org/2000/svg" xmlns:xlink="http://www.w3.org/1999/xlink"><title>content-strategy-icon</title><defs><path id="a" d="M28 0h26v12H28z"/><mask id="h" x="0" y="0" width="26" height="12" fill="#fff"><use xlink:href="#a"/></mask><path id="b" d="M0 0h26v12H0z"/><mask id="i" x="0" y="0" width="26" height="12" fill="#fff"><use xlink:href="#b"/></mask><path id="c" d="M28 14h26v12H28z"/><mask id="j" x="0" y="0" width="26" height="12" fill="#fff"><use xlink:href="#c"/></mask><path id="d" d="M28 28h26v12H28z"/><mask id="k" x="0" y="0" width="26" height="12" fill="#fff"><use xlink:href="#d"/></mask><path id="e" d="M28 42h26v12H28z"/><mask id="l" x="0" y="0" width="26" height="12" fill="#fff"><use xlink:href="#e"/></mask><path id="f" d="M28 56h26v12H28z"/><mask id="m" x="0" y="0" width="26" height="12" fill="#fff"><use xlink:href="#f"/></mask><path id="g" d="M56 56h26v12H56z"/><mask id="n" x="0" y="0" width="26" height="12" fill="#fff"><use xlink:href="#g"/></mask></defs><g fill="none" fill-rule="evenodd"><circle fill="#EFE8D8" cx="70" cy="70" r="70"/><g transform="translate(29 36)" stroke="#FF4552" stroke-width="4"><use mask="url(#h)" xlink:href="#a"/><use mask="url(#i)" xlink:href="#b"/><use mask="url(#j)" xlink:href="#c"/><use mask="url(#k)" xlink:href="#d"/><use mask="url(#l)" xlink:href="#e"/><use mask="url(#m)" xlink:href="#f"/><use mask="url(#n)" xlink:href="#g"/></g><g stroke="#FF4552" stroke-width="2" stroke-linecap="round"><path d="M85 41s12 0 12 7.5S85 56 85 56"/><path d="M85 56l3-5M85 56l3 5" stroke-linejoin="round"/></g><g stroke="#FF4552" stroke-width="2" stroke-linecap="round"><path d="M54 56s-12 0-12 7.5S54 71 54 71"/><path d="M54 71l-3-5M54 71l-3 5" stroke-linejoin="round"/></g><g stroke="#FF4552" stroke-width="2" stroke-linecap="round"><path d="M54 83s-12 0-12 7.5S54 98 54 98"/><path d="M54 98l-3-5M54 98l-3 5" stroke-linejoin="round"/></g><g stroke="#FF4552" stroke-width="2" stroke-linecap="round"><path d="M85 70s12 0 12 7.5S85 85 85 85"/><path d="M85 85l3-5M85 85l3 5" stroke-linejoin="round"/></g></g></svg>