<svg width="140" height="140" viewBox="0 0 140 140" xmlns="http://www.w3.org/2000/svg" xmlns:xlink="http://www.w3.org/1999/xlink"><title>design-icon</title><defs><path id="a" d="M34 34h73v73H34z"/><mask id="k" x="0" y="0" width="73" height="73" fill="#fff"><use xlink:href="#a"/></mask><path id="b" d="M34 34h54v54H34z"/><mask id="l" x="0" y="0" width="54" height="54" fill="#fff"><use xlink:href="#b"/></mask><path id="c" d="M31 31h8v8h-8z"/><mask id="m" x="0" y="0" width="8" height="8" fill="#fff"><use xlink:href="#c"/></mask><path id="d" d="M31 83h8v8h-8z"/><mask id="n" x="0" y="0" width="8" height="8" fill="#fff"><use xlink:href="#d"/></mask><path id="e" d="M31 56h8v8h-8z"/><mask id="o" x="0" y="0" width="8" height="8" fill="#fff"><use xlink:href="#e"/></mask><path id="f" d="M83 31h8v8h-8z"/><mask id="p" x="0" y="0" width="8" height="8" fill="#fff"><use xlink:href="#f"/></mask><path id="g" d="M57 31h8v8h-8z"/><mask id="q" x="0" y="0" width="8" height="8" fill="#fff"><use xlink:href="#g"/></mask><path id="h" d="M83 83h8v8h-8z"/><mask id="r" x="0" y="0" width="8" height="8" fill="#fff"><use xlink:href="#h"/></mask><path id="i" d="M57 83h8v8h-8z"/><mask id="s" x="0" y="0" width="8" height="8" fill="#fff"><use xlink:href="#i"/></mask><path id="j" d="M83 56h8v8h-8z"/><mask id="t" x="0" y="0" width="8" height="8" fill="#fff"><use xlink:href="#j"/></mask></defs><g fill="none" fill-rule="evenodd"><circle fill="#EFE8D8" cx="70" cy="70" r="70"/><use stroke="#FF4552" mask="url(#k)" stroke-width="4" stroke-dasharray="6,4" xlink:href="#a"/><use stroke="#FF4552" mask="url(#l)" stroke-width="4" xlink:href="#b"/><use stroke="#FF4552" mask="url(#m)" stroke-width="4" fill="#EFE8D8" xlink:href="#c"/><use stroke="#FF4552" mask="url(#n)" stroke-width="4" fill="#EFE8D8" xlink:href="#d"/><use stroke="#FF4552" mask="url(#o)" stroke-width="4" fill="#EFE8D8" xlink:href="#e"/><use stroke="#FF4552" mask="url(#p)" stroke-width="4" fill="#EFE8D8" xlink:href="#f"/><use stroke="#FF4552" mask="url(#q)" stroke-width="4" fill="#EFE8D8" xlink:href="#g"/><use stroke="#FF4552" mask="url(#r)" stroke-width="4" fill="#EFE8D8" xlink:href="#h"/><use stroke="#FF4552" mask="url(#s)" stroke-width="4" fill="#EFE8D8" xlink:href="#i"/><use stroke="#FF4552" mask="url(#t)" stroke-width="4" fill="#EFE8D8" xlink:href="#j"/></g></svg>