<svg width="158" height="259" viewBox="0 0 158 259" xmlns="http://www.w3.org/2000/svg"><title>headshot</title><g fill="none" fill-rule="evenodd"><path d="M2.406 108.163L0 74.513l6.417-15.224-4.813-9.615 8.823-.802L0 35.253l9.625.8-.802-15.222 12.833 8.815 8.02-20.03L42.51 28.842l17.646-20.83-1.604 12.017 9.625-17.626-.802 20.83L77 0l8.823 14.422 17.646-7.21 5.613 12.818 16.042-.8 12.03 17.625L150.793 66.5 154 101.753l-6.417 28.843-4.812-12.018-2.405-16.024-11.23-28.843s-4.812-12.017-52.937-12.017S28.875 73.71 28.875 73.71l-12.03 33.65-1.605 12.02L12.833 133 2.406 108.163z" fill="#BF9E8F"/><ellipse fill="#888" cx="45" cy="138" rx="6" ry="6"/><ellipse fill="#888" cx="113" cy="138" rx="6" ry="6"/><path d="M9 124.282s2.698-13.69 6.4-4.02c3.702 9.672 16 70.735 20.8 73.95 4.8 3.216 10.4-7.234 16.8-9.645 6.4-2.41 51.2-5.626 56.8-3.215 5.6 2.41 6.4 11.253 12.8 8.842 6.4-2.412 12.663-56.146 19.2-73.146 6.537-17 7.2 7.234 7.2 7.234s-1.763 44.256-13.6 79.576c-11.837 35.32-28.102 51.265-57.6 53.05-24.306 1.472-42.896-15.033-52.8-36.974-5.482-12.144-6.477-37.19-8.8-58.677C13.877 139.77 9 124.282 9 124.282zm44.812 68.8c7.192-3.967 44.758-5.893 53.537-4.76 8.778 1.132 9.587 5.555 7.99 12.7-1.6 7.142-16.42 25.72-20.776 28.572-4.355 2.85-6.877-5.97-14.383-5.556-7.505.414-1.16 13.71-14.382 7.143-13.22-6.565-20.396-19.112-22.373-25.397-1.978-6.285 3.196-8.73 10.387-12.7z" fill="#BE9F8E"/><path d="M82.03 131.3l3.11 18.072c.184 1.07 1.19 1.785 2.25 1.6 1.056-.187 1.765-1.204 1.58-2.273l-3.11-18.072c-.184-1.07-1.19-1.785-2.25-1.6-1.056.187-1.765 1.204-1.58 2.273zM68.285 174.822c.126.22.338.534.64.913.482.6 1.065 1.196 1.756 1.75C72.643 179.055 75.09 180 78 180c3.06 0 5.59-1.365 7.565-3.582.67-.753 1.232-1.554 1.69-2.357.283-.493.475-.893.583-1.156.435-1.057-.035-2.282-1.05-2.735-1.016-.454-2.192.036-2.627 1.093-.04.102-.155.34-.34.667-.324.564-.72 1.13-1.186 1.653-1.273 1.428-2.796 2.25-4.634 2.25-1.99 0-3.59-.618-4.88-1.65-.447-.36-.82-.74-1.12-1.115-.166-.207-.26-.348-.285-.39-.568-.986-1.797-1.306-2.744-.714-.946.592-1.253 1.872-.685 2.858zM91.43 164.2c.033.02.126.086.26.197.24.2.483.44.71.723.646.803 1.03 1.757 1.03 2.88 0 1.046-.49 1.96-1.34 2.75-.31.292-.647.543-.982.75-.194.122-.335.198-.397.226-.634.297-.892 1.018-.574 1.61.318.593 1.09.833 1.725.537.543-.253 1.295-.72 2.05-1.425C95.202 171.24 96 169.753 96 168c0-1.677-.58-3.123-1.543-4.32-.58-.72-1.167-1.208-1.6-1.478-.592-.368-1.39-.22-1.784.332-.394.552-.234 1.297.357 1.665zM51.133 205.83l.748.18c.594.142 1.27.3 2.015.47 2.13.486 4.402.97 6.726 1.424 2.228.435 4.39.817 6.446 1.134 4.026.62 7.485.962 10.238.962 2.907 0 5.137-.49 12.038-2.35.966-.26 1.634-.437 2.302-.61 2.087-.54 3.736-.912 5.25-1.17 3.4-.577 6.124-2.408 8.2-5.04.863-1.095 1.557-2.258 2.103-3.423.335-.716.554-1.296.672-1.68.464-1.507-.35-3.116-1.82-3.593-1.47-.477-3.037.36-3.502 1.866-.042.138-.167.47-.38.925-.37.787-.84 1.577-1.413 2.303-1.27 1.61-2.836 2.664-4.772 2.993-1.692.288-3.48.692-5.702 1.267-.69.178-1.372.36-2.354.624-6.318 1.702-8.41 2.163-10.622 2.163-2.426 0-5.634-.318-9.41-.9-1.98-.304-4.07-.674-6.23-1.095-2.265-.442-4.482-.915-6.558-1.388-.726-.166-1.383-.32-1.957-.457-.343-.082-.58-.14-.7-.17-1.5-.373-3.007.57-3.37 2.108-.364 1.538.556 3.086 2.053 3.46zM68.354 213.195c.505.536 1.484 1.27 2.985 1.98C73.762 216.32 76.802 217 80.5 217s6.737-.68 9.16-1.825c1.502-.71 2.48-1.444 2.986-1.98.472-.502.472-1.316 0-1.818-.473-.503-1.24-.503-1.71 0-.054.056-.21.196-.473.394-.472.355-1.065.715-1.785 1.055-2.113.998-4.818 1.604-8.178 1.604-3.36 0-6.065-.607-8.178-1.605-.72-.34-1.313-.7-1.785-1.054-.263-.197-.42-.337-.472-.393-.472-.503-1.238-.503-1.71 0-.473.502-.473 1.316 0 1.818z" fill="#888"/><path d="M14.328 153.582c-.01.133-.028.38-.05.733-.035.58-.07 1.256-.104 2.022-.648 14.98.428 32.535 4.632 49.342 3.705 14.81 9.523 27.215 17.852 36.4C46.616 253.06 59.8 259 76.358 259c16.54 0 30.22-6.143 41.14-17.483 9.133-9.484 16.08-22.31 21.155-37.638 3.917-11.834 6.505-24.48 8.026-37.12.53-4.422.893-8.53 1.115-12.22.078-1.296.133-2.448.17-3.444l.027-.92c.03-1.88-1.204-3.152-2.752-3.176-1.547-.023-2.82 1.212-2.843 2.758-.012.518-.02.805-.033 1.136-.034.952-.087 2.06-.162 3.31-.216 3.583-.568 7.58-1.086 11.887-1.48 12.297-3.996 24.59-7.783 36.03-4.832 14.597-11.393 26.71-19.87 35.513-9.893 10.272-22.13 15.767-37.106 15.767-14.962 0-26.643-5.26-35.547-15.08-7.63-8.415-13.07-20.01-16.568-34-4.05-16.195-5.096-33.25-4.47-47.74.032-.732.066-1.374.1-1.92.02-.323.034-.54.043-.642.12-1.542-1.033-2.89-2.575-3.01-1.543-.12-2.89 1.032-3.012 2.574z" fill="#888"/><path d="M126.548 75.11c6.445 11.276 12.81 31.678 14.665 50.087.22 2.18 1.173 3.987 2.855 5.96.668.784 3.148 3.366 3.45 3.7 3.383 3.72 4.93 7.122 4.88 12.567-.05 5.427-2.044 10.207-5.372 14.328-1.193 1.478-2.475 2.76-3.75 3.838-.442.372-.848.69-1.207.952-.203.148-.334.238-.384.27-1.3.84-1.68 2.584-.843 3.893.836 1.31 2.568 1.69 3.87.848.47-.304 1.22-.853 2.16-1.646 1.537-1.296 3.068-2.83 4.5-4.602 4.074-5.045 6.563-11.01 6.626-17.83.063-7.016-2.08-11.725-6.35-16.422-.403-.444-2.793-2.932-3.33-3.563-1.006-1.18-1.45-2.023-1.535-2.86-1.952-19.354-8.654-40.725-15.567-52.65l-.165-.285-.227-.24c-5.6-5.91-13.882-9.66-24.11-11.685-9.046-1.79-18.572-2.078-27.19-1.502-.83.056-1.574.116-2.22.176-.394.036-.672.065-.826.083-1.536.178-2.638 1.575-2.46 3.12.175 1.546 1.564 2.655 3.1 2.478.113-.013.35-.038.702-.07.598-.057 1.293-.113 2.076-.165 8.173-.546 17.245-.273 25.738 1.408 9.047 1.79 16.232 5.007 20.912 9.81zM16.314 166.834c-.05-.032-.182-.122-.384-.27-.36-.26-.765-.577-1.206-.948-1.276-1.072-2.557-2.35-3.75-3.822-3.33-4.104-5.323-8.864-5.373-14.27-.05-5.42 1.5-8.81 4.88-12.515.304-.332 2.783-2.903 3.45-3.684 1.683-1.965 2.636-3.765 2.856-5.936 1.873-18.492 8.33-39.003 14.832-50.17.78-1.34.328-3.057-1.008-3.837-1.335-.78-3.05-.33-3.83 1.01-6.912 11.875-13.613 33.158-15.565 52.43-.085.836-.53 1.676-1.535 2.85-.537.63-2.927 3.107-3.33 3.55-4.27 4.676-6.413 9.366-6.35 16.354.064 6.79 2.553 12.73 6.627 17.756 1.432 1.765 2.963 3.292 4.5 4.583.94.79 1.69 1.336 2.16 1.64 1.3.836 3.034.458 3.87-.846.835-1.303.458-3.04-.843-3.876z" fill="#888"/><path d="M26.87 125.007c.097-.118.327-.372.673-.716.593-.59 1.27-1.183 2.01-1.733 1.376-1.025 2.797-1.77 4.188-2.126 1.54-.395 4.723-.78 8.937-1.113 2.33-.184 4.83-.342 7.332-.474.876-.046 1.69-.085 2.42-.118l.674-.03.235-.01c1.526-.06 2.717-1.38 2.658-2.95-.06-1.57-1.345-2.793-2.872-2.733l-.25.01c-.2.01-.43.02-.69.03-.743.034-1.57.074-2.46.12-2.545.135-5.092.296-7.473.485-4.53.358-7.91.766-9.854 1.266-2.152.553-4.187 1.618-6.094 3.037-.967.72-1.842 1.487-2.615 2.257-.474.473-.82.854-1.024 1.1-.994 1.19-.86 2.986.3 4.008 1.16 1.022 2.908.884 3.903-.308zM131.253 119.25c-.233-.253-.635-.665-1.18-1.184-.9-.855-1.888-1.71-2.946-2.51-2.304-1.75-4.612-3.02-6.912-3.598-2.08-.522-5.783-.792-10.843-.903-3.195-.07-6.596-.068-9.802-.022-.495.007-.94.015-1.332.023l-.49.01c-1.554.037-2.784 1.334-2.747 2.896.038 1.562 1.328 2.8 2.882 2.76.08 0 .238-.004.466-.008.38-.008.818-.015 1.303-.022 3.144-.046 6.482-.048 9.6.02 4.617.1 8.077.354 9.6.736 1.44.362 3.13 1.292 4.884 2.623.88.668 1.712 1.388 2.468 2.107.264.25.497.48.697.686.113.117.187.195.216.227 1.055 1.148 2.836 1.22 3.978.16 1.143-1.06 1.214-2.85.16-4z" fill="#888"/></g></svg>