<svg width="140" height="140" viewBox="0 0 140 140" xmlns="http://www.w3.org/2000/svg" xmlns:xlink="http://www.w3.org/1999/xlink"><title>develop-icon</title><defs><rect id="a" x="34" y="34" width="73" height="73" rx="4"/><mask id="b" x="0" y="0" width="73" height="73" fill="#fff"><use xlink:href="#a"/></mask></defs><g fill="none" fill-rule="evenodd"><circle fill="#EFE8D8" cx="70" cy="70" r="70"/><use stroke="#FF4552" mask="url(#b)" stroke-width="4" xlink:href="#a"/><path d="M34 34h73v10H34V34zm57 7c1.105 0 2-.895 2-2s-.895-2-2-2-2 .895-2 2 .895 2 2 2zm6 0c1.105 0 2-.895 2-2s-.895-2-2-2-2 .895-2 2 .895 2 2 2zm6 0c1.105 0 2-.895 2-2s-.895-2-2-2-2 .895-2 2 .895 2 2 2z" fill="#FF4552"/><g fill="#FF4552"><path d="M64.567 70.56c.577-.585.577-1.535 0-2.12-.577-.586-1.512-.586-2.09 0L57 74l5.478 5.56c.577.586 1.512.586 2.09 0 .576-.585.576-1.535 0-2.12L61.177 74l3.39-3.44zM81.82 74l-3.387 3.44c-.577.585-.577 1.535 0 2.12.577.586 1.512.586 2.09 0L86 74l-5.478-5.56c-.577-.586-1.512-.586-2.09 0-.576.585-.576 1.535 0 2.12l3.39 3.44zM69.883 82.095l6-14.043c.32-.752-.038-1.62-.8-1.936-.765-.317-1.644.037-1.966.79l-6 14.042c-.32.752.038 1.62.8 1.936.765.317 1.644-.037 1.966-.79z"/></g><g transform="translate(87 70)"><rect fill="#FF4552" width="26" height="43" rx="4"/><circle fill="#EFE8D8" cx="13" cy="39" r="2"/><path fill="#EFE8D8" d="M4 4h18v31H4z"/><g fill="#FF4552"><path d="M9.784 17.28c.288-.293.288-.767 0-1.06-.29-.293-.757-.293-1.045 0L6 19l2.74 2.78c.287.293.755.293 1.044 0 .288-.293.288-.767 0-1.06L8.09 19l1.694-1.72zM17.91 19l-1.694 1.72c-.288.293-.288.767 0 1.06.29.293.757.293 1.045 0L20 19l-2.74-2.78c-.287-.293-.755-.293-1.044 0-.288.293-.288.767 0 1.06L17.91 19zM12.28 22.574l2.668-6.608c.142-.354-.017-.762-.356-.91-.34-.15-.73.016-.873.37l-2.668 6.608c-.142.354.017.762.356.91.34.15.73-.016.873-.37z"/></g></g></g></svg>